<?xml version="1.0"?>
<svg width="1280" height="1280" xmlns="http://www.w3.org/2000/svg" xmlns:svg="http://www.w3.org/2000/svg" preserveAspectRatio="xMidYMid meet">
 <metadata>Created by potrace 1.15, written by Peter Selinger 2001-2017</metadata>
 <g class="layer">
  <title>Layer 1</title>
  <g fill="#000000" id="svg_1" transform="translate(0.000000,1280.000000) scale(0.100000,-0.100000)">
   <path d="m7913,12504c-540,-118 -1050,-846 -1312,-1871c-115,-454 -179,-883 -223,-1498c-15,-218 -15,-1102 0,-1320c6,-82 8,-152 6,-154c-11,-11 -19,25 -50,226c-249,1634 -735,2897 -1403,3647c-520,584 -1126,747 -1471,396c-288,-293 -317,-888 -74,-1557c333,-920 1084,-1914 2224,-2949c63,-57 75,-73 57,-75c-5,-1 -64,39 -130,88c-1582,1166 -3097,1745 -4109,1568c-269,-47 -491,-154 -634,-307c-299,-320 -184,-807 285,-1200c521,-436 1369,-730 2461,-852c391,-44 547,-51 1193,-51c461,0 627,-3 627,-11c0,-7 -21,-15 -47,-18c-977,-138 -1929,-404 -2657,-743c-989,-461 -1615,-1109 -1618,-1673c-1,-190 53,-322 183,-452c123,-122 298,-198 527,-229c122,-16 397,-6 542,21c778,142 1661,647 2585,1479c185,167 549,525 710,700c100,108 122,127 134,116c11,-11 -9,-44 -121,-201c-852,-1197 -1347,-2289 -1453,-3208c-18,-162 -21,-461 -5,-591c41,-333 144,-573 317,-735c128,-121 253,-173 418,-173c125,0 210,20 332,78c131,62 231,134 353,255c436,432 763,1214 914,2190c82,526 101,813 101,1527c0,497 2,594 14,598c8,3 15,4 16,3c1,-2 15,-79 29,-173c171,-1078 490,-2084 882,-2782c439,-784 988,-1263 1479,-1290c342,-18 592,186 692,565c34,129 44,416 19,589c-84,606 -409,1288 -960,2021c-365,484 -824,978 -1386,1490c-36,32 -42,42 -29,47c11,4 77,-38 200,-126c1182,-849 2280,-1354 3234,-1485c182,-25 580,-26 715,-1c318,59 519,153 669,313c105,113 172,275 171,416c-2,216 -126,465 -339,677c-705,704 -2251,1081 -4144,1011c-305,-11 -361,-10 -346,4c3,3 97,19 209,36c1525,233 2753,685 3503,1289c589,475 835,1015 641,1406c-168,341 -638,477 -1244,359c-466,-90 -982,-321 -1535,-689c-638,-424 -1213,-937 -1937,-1730c-20,-22 -39,-37 -43,-33c-3,3 52,84 123,179c660,888 1134,1750 1392,2529c237,716 282,1347 130,1801c-98,293 -288,494 -525,554c-72,18 -207,18 -292,-1z" fill="#442222" id="svg_2"/>
  </g>
 </g>
</svg>